<svg width="178" height="37" fill="none" xmlns="http://www.w3.org/2000/svg"><path d="M3.695 22.777c.878 0 1.566.21 2.064.629.498.419.747.996.747 1.73 0 .733-.249 1.31-.747 1.73-.498.412-1.186.618-2.064.618H1.848v2.172H1.12v-6.88h2.575zm-.02 4.069c.682 0 1.203-.148 1.563-.443.36-.301.54-.724.54-1.268 0-.557-.18-.982-.54-1.277-.36-.302-.88-.452-1.562-.452H1.848v3.44h1.828zm6.34 2.86c-.497 0-.946-.112-1.346-.335a2.497 2.497 0 01-.943-.943c-.23-.4-.344-.852-.344-1.357 0-.504.114-.956.344-1.356.229-.4.543-.71.943-.933.4-.223.849-.335 1.347-.335s.946.112 1.346.335c.4.222.71.534.934.933.229.4.344.852.344 1.357 0 .504-.115.956-.344 1.356-.223.4-.534.714-.934.943-.4.223-.848.335-1.346.335zm0-.62c.367 0 .695-.082.983-.245.295-.17.525-.41.688-.718.164-.308.246-.658.246-1.052a2.2 2.2 0 00-.246-1.051 1.707 1.707 0 00-.688-.708 1.895 1.895 0 00-.982-.255c-.367 0-.698.085-.993.255a1.79 1.79 0 00-.688.708 2.205 2.205 0 00-.246 1.052c0 .393.082.743.246 1.051.17.308.4.547.688.718.295.163.626.245.993.245zm11.493-4.6l-1.956 5.17h-.659l-1.631-4.236-1.632 4.236h-.658l-1.946-5.17h.668l1.622 4.394 1.66-4.393h.6l1.651 4.393 1.642-4.393h.639zm5.408 2.802H22.59c.04.537.246.973.62 1.307.373.328.845.491 1.415.491.32 0 .616-.055.884-.167.269-.118.501-.288.698-.51l.393.451a2.22 2.22 0 01-.865.63c-.34.143-.717.216-1.13.216a2.93 2.93 0 01-1.415-.335 2.488 2.488 0 01-.954-.943 2.68 2.68 0 01-.343-1.357c0-.504.108-.956.324-1.356.223-.4.524-.71.904-.933a2.55 2.55 0 011.297-.335c.479 0 .908.112 1.288.335.38.222.678.534.894.933.216.393.324.846.324 1.357l-.01.216zm-2.497-2.241c-.498 0-.917.16-1.258.482-.334.314-.524.727-.57 1.238h3.666c-.046-.511-.239-.924-.58-1.238-.334-.322-.753-.482-1.258-.482zm4.595.452c.164-.347.406-.61.727-.786.328-.177.73-.266 1.21-.266v.679l-.168-.01c-.544 0-.97.167-1.277.501-.308.334-.462.803-.462 1.405v2.634h-.698v-5.17h.668V25.5zm7.653 1.789h-4.324c.039.537.245.973.619 1.307.373.328.845.491 1.415.491.321 0 .616-.055.884-.167.27-.118.502-.288.698-.51l.393.451a2.216 2.216 0 01-.864.63 2.895 2.895 0 01-1.13.216 2.933 2.933 0 01-1.416-.335 2.487 2.487 0 01-.953-.943c-.23-.4-.344-.852-.344-1.357 0-.504.108-.956.324-1.356.223-.4.524-.71.904-.933a2.55 2.55 0 011.298-.335c.478 0 .907.112 1.287.335.38.222.678.534.894.933.217.393.325.846.325 1.357l-.01.216zm-2.496-2.241c-.498 0-.918.16-1.258.482-.335.314-.525.727-.57 1.238h3.665c-.045-.511-.239-.924-.58-1.238-.334-.322-.753-.482-1.257-.482zm8.644-2.683v7.292h-.669v-1.022a2.12 2.12 0 01-.835.796c-.34.184-.727.276-1.16.276-.485 0-.924-.112-1.317-.335a2.388 2.388 0 01-.924-.933 2.758 2.758 0 01-.334-1.366c0-.511.112-.967.334-1.367.223-.4.531-.707.924-.923a2.624 2.624 0 011.317-.335c.42 0 .796.089 1.13.266.341.17.62.422.836.756v-3.105h.698zm-2.605 6.722c.36 0 .685-.082.973-.245.295-.17.524-.41.688-.718a2.14 2.14 0 00.256-1.052c0-.393-.086-.743-.256-1.051a1.706 1.706 0 00-.688-.708 1.876 1.876 0 00-.973-.255c-.367 0-.698.085-.992.255a1.79 1.79 0 00-.689.708 2.205 2.205 0 00-.245 1.052c0 .393.082.743.245 1.051.17.308.4.547.688.718.295.163.626.245.993.245zm9.783-4.639c.485 0 .924.112 1.317.335.394.216.701.524.924.923.223.4.334.856.334 1.367 0 .51-.11.966-.334 1.366-.223.4-.53.71-.924.933a2.624 2.624 0 01-1.317.335c-.432 0-.822-.092-1.169-.276a2.139 2.139 0 01-.826-.796v1.022h-.668v-7.292h.698v3.105c.216-.334.491-.586.825-.756a2.437 2.437 0 011.14-.266zm-.049 4.64a2 2 0 00.983-.246c.295-.17.524-.41.688-.718a2.14 2.14 0 00.256-1.052c0-.393-.086-.743-.256-1.051a1.706 1.706 0 00-.688-.708 1.929 1.929 0 00-.983-.255c-.367 0-.697.085-.992.255-.289.164-.518.4-.688.708a2.205 2.205 0 00-.246 1.052c0 .393.082.743.246 1.051.17.308.4.547.688.718.295.163.626.245.992.245zm8.247-4.6l-2.585 5.789c-.21.484-.452.828-.727 1.031-.275.204-.606.305-.993.305-.249 0-.481-.04-.698-.118a1.513 1.513 0 01-.56-.354l.325-.52c.262.261.576.393.943.393a.929.929 0 00.6-.197c.17-.131.327-.354.471-.668l.226-.502-2.31-5.16h.728l1.946 4.394 1.946-4.393h.688z" fill="#2C3647"/><path d="M69.414 0h10.458v30.23L69.414 37V0z" fill="#FFC01E"/><path d="M76.134 29.915v-1.25c-.13.185-.259.359-.417.521a2.426 2.426 0 01-.557.424 3.454 3.454 0 01-.704.292 2.84 2.84 0 01-.81.114c-.547 0-1.008-.097-1.385-.293a2.677 2.677 0 01-.917-.756 2.976 2.976 0 01-.507-1.058 4.764 4.764 0 01-.156-1.212V25.19c0-.381-6.656 4.724-6.656 4.724V26.45l6.656-4.723h2.702v4.35c0 .228.017.445.05.652a1.6 1.6 0 00.188.553c.092.162.215.29.368.382.153.092.355.138.606.138.47 0 .827-.173 1.073-.52.245-.347.4-.754.4-1.22v-4.335h2.536v8.187h-2.47zm13.757-4.21c0 .564-.088 1.106-.263 1.627-.174.52-.428.979-.761 1.374a3.76 3.76 0 01-1.22.952c-.48.239-1.026.358-1.638.358-.502 0-.977-.1-1.424-.3-.448-.201-.797-.475-1.048-.823h-.033v4.8h-2.686V21.687h2.555v.992h.049c.25-.325.598-.61 1.04-.854.442-.244.963-.366 1.564-.366a3.62 3.62 0 012.825 1.27c.333.39.59.842.77 1.357.18.516.27 1.055.27 1.62zm-2.604 0c0-.26-.041-.516-.123-.765a1.983 1.983 0 00-.36-.66 1.82 1.82 0 00-.598-.463 1.853 1.853 0 00-.835-.179c-.306 0-.579.06-.82.179-.24.12-.444.277-.613.472-.17.195-.3.417-.393.667a2.177 2.177 0 000 1.53c.092.249.224.471.393.666.169.196.374.353.614.472.24.12.513.18.819.18.316 0 .595-.06.835-.18.24-.119.44-.276.597-.471.159-.196.279-.42.36-.676a2.48 2.48 0 00.124-.773zm13.363 0a5.1 5.1 0 01-.262 1.627c-.175.52-.429.979-.762 1.374a3.76 3.76 0 01-1.22.952c-.48.239-1.026.358-1.638.358-.502 0-.977-.1-1.424-.3-.448-.201-.797-.475-1.048-.823h-.033v4.8h-2.686V21.687h2.555v.992h.05c.25-.325.597-.61 1.039-.854.442-.244.963-.366 1.564-.366a3.62 3.62 0 012.825 1.27c.333.39.589.842.77 1.357.18.516.27 1.055.27 1.62zm-2.604 0c0-.26-.041-.516-.123-.765a1.983 1.983 0 00-.36-.66 1.82 1.82 0 00-.598-.463 1.853 1.853 0 00-.835-.179c-.306 0-.579.06-.819.179-.24.12-.445.277-.614.472-.17.195-.3.417-.393.667a2.177 2.177 0 000 1.53c.093.249.224.471.393.666.17.196.374.353.614.472.24.12.513.18.819.18.317 0 .595-.06.835-.18.24-.119.44-.276.598-.471a2.07 2.07 0 00.36-.676c.082-.255.123-.512.123-.773zm12.937 0c0 .661-.12 1.26-.36 1.797-.24.537-.568.993-.983 1.367a4.502 4.502 0 01-1.441.87 4.92 4.92 0 01-1.752.31 4.94 4.94 0 01-1.744-.31 4.386 4.386 0 01-1.441-.87 4.091 4.091 0 01-.975-1.367 4.359 4.359 0 01-.36-1.798c0-.661.12-1.258.36-1.79a4.04 4.04 0 01.975-1.35 4.25 4.25 0 011.441-.846 5.184 5.184 0 011.744-.293 5.17 5.17 0 011.752.293 4.35 4.35 0 011.441.846c.415.369.743.82.983 1.35.24.532.36 1.129.36 1.79zm-2.587 0c0-.26-.044-.516-.131-.765a1.918 1.918 0 00-.983-1.123 1.85 1.85 0 00-.835-.179c-.317 0-.595.06-.835.179-.24.12-.44.274-.598.464a1.99 1.99 0 00-.36.659 2.434 2.434 0 000 1.53c.082.249.204.474.368.674.164.201.366.361.606.48.24.12.519.18.835.18.317 0 .595-.06.836-.18.24-.119.442-.279.605-.48.164-.2.287-.425.369-.675.082-.25.123-.504.123-.765zm7.205-6.607c0 .207-.041.399-.123.578a1.482 1.482 0 01-.327.464 1.607 1.607 0 01-1.089.423 1.51 1.51 0 01-1.097-.431 1.391 1.391 0 01-.442-1.034c0-.195.038-.382.114-.561.077-.179.186-.334.328-.464.142-.13.305-.236.491-.317a1.605 1.605 0 011.695.301c.136.13.246.285.327.464.082.179.123.371.123.577zm-2.882 10.69v-8.102h2.686v8.102h-2.686zm10.17 0v-4.425c0-.228-.019-.445-.058-.651a1.79 1.79 0 00-.188-.545.972.972 0 00-.368-.374 1.176 1.176 0 00-.598-.139 1.273 1.273 0 00-1.081.52c-.12.164-.21.35-.27.562-.06.212-.09.431-.09.66v4.392h-2.702v-8.102h2.604v1.122h.032c.099-.173.227-.344.385-.512.158-.168.344-.312.557-.432.213-.119.445-.216.696-.292.251-.076.519-.114.802-.114.546 0 1.01.097 1.392.293.382.195.691.447.926.756.234.31.404.665.507 1.066.104.401.156.803.156 1.204v5.011h-2.702zm7.648-6.101v3.091c0 .38.073.665.221.855.147.19.412.284.794.284.131 0 .27-.01.417-.032.148-.022.271-.055.369-.098l.033 1.953a4.473 4.473 0 01-.705.17 5.002 5.002 0 01-.851.074c-.546 0-1.004-.068-1.376-.204a2.134 2.134 0 01-.892-.585 2.286 2.286 0 01-.483-.912 4.361 4.361 0 01-.148-1.18v-3.416h-1.31v-2.002h1.294v-2.131h2.637v2.132h1.916v2h-1.916zm13.592 6.101v-4.425c0-.228-.017-.448-.049-.66a1.578 1.578 0 00-.18-.544 1.04 1.04 0 00-.352-.366c-.148-.093-.342-.139-.582-.139a1.18 1.18 0 00-.598.147 1.32 1.32 0 00-.425.39c-.115.163-.2.35-.254.562a2.607 2.607 0 00-.082.659v4.376h-2.686v-4.62c0-.467-.093-.836-.278-1.107-.186-.271-.481-.407-.885-.407-.425 0-.756.168-.99.505-.235.336-.352.748-.352 1.236v4.393h-2.702v-8.102h2.603v1.122c.131-.173.254-.341.402-.504a2.31 2.31 0 01.532-.431 2.971 2.971 0 011.539-.415c.59 0 1.089.119 1.499.358.409.238.728.58.958 1.025.273-.423.622-.76 1.048-1.01.426-.249.944-.373 1.555-.373.557 0 1.024.1 1.401.3.376.201.679.462.909.782.229.32.395.678.499 1.074.104.395.156.783.156 1.163v5.011h-2.686zm10.333-4.979c0-.422-.133-.786-.401-1.09-.267-.303-.669-.455-1.204-.455-.262 0-.502.04-.72.122-.218.081-.41.192-.573.333a1.645 1.645 0 00-.393.497c-.099.19-.153.387-.164.593h3.455zm2.473 1.026v.325c0 .108-.005.212-.016.31h-5.912c.022.227.09.433.205.617.114.185.262.345.442.48a2.151 2.151 0 001.302.431c.425 0 .786-.078 1.081-.235.294-.158.535-.361.72-.61l1.867 1.171a3.768 3.768 0 01-1.515 1.277c-.628.299-1.356.448-2.186.448-.611 0-1.19-.095-1.736-.285a4.226 4.226 0 01-1.433-.83 3.851 3.851 0 01-.966-1.342c-.235-.532-.352-1.14-.352-1.822 0-.662.114-1.261.344-1.799a4.06 4.06 0 01.933-1.366 4.163 4.163 0 011.392-.87 4.79 4.79 0 011.736-.31c.601 0 1.152.1 1.654.301a3.6 3.6 0 011.294.87c.36.38.641.841.843 1.384.202.542.303 1.16.303 1.855zm7.026 3.953v-4.425c0-.228-.02-.445-.058-.651a1.79 1.79 0 00-.188-.545.967.967 0 00-.369-.374 1.17 1.17 0 00-.597-.139 1.273 1.273 0 00-1.081.52c-.12.164-.21.35-.27.562-.06.212-.09.431-.09.66v4.392h-2.702v-8.102h2.603v1.122h.033a2.68 2.68 0 01.385-.512c.158-.168.344-.312.557-.432.213-.119.445-.216.696-.292.251-.076.518-.114.802-.114.546 0 1.01.097 1.392.293.382.195.691.447.925.756.235.31.404.665.508 1.066.104.401.156.803.156 1.204v5.011h-2.702zm7.647-6.101v3.091c0 .38.074.665.221.855.148.19.413.284.795.284.131 0 .27-.01.417-.032.148-.022.27-.055.369-.098l.032 1.953a4.43 4.43 0 01-.704.17 5.01 5.01 0 01-.851.074c-.546 0-1.005-.068-1.376-.204a2.127 2.127 0 01-.892-.585 2.286 2.286 0 01-.483-.912 4.361 4.361 0 01-.148-1.18v-3.416h-1.31v-2.002h1.294v-2.131h2.636v2.132h1.916v2h-1.916zm6.24 4.67a1.5 1.5 0 01-.483 1.139 1.625 1.625 0 01-1.155.455 1.716 1.716 0 01-1.179-.455 1.543 1.543 0 01-.36-.497 1.47 1.47 0 01-.131-.626c0-.217.043-.423.131-.618a1.61 1.61 0 01.36-.513c.153-.146.33-.263.532-.35.202-.087.418-.13.647-.13.448 0 .833.152 1.155.456a1.5 1.5 0 01.483 1.139z" fill="#2C3647"/></svg>