<svg width="178" height="37" viewBox="0 0 178 37" fill="none" xmlns="http://www.w3.org/2000/svg">
<path d="M3.69536 22.7766C4.57334 22.7766 5.26131 22.9863 5.75926 23.4056C6.25722 23.825 6.5062 24.4016 6.5062 25.1354C6.5062 25.8692 6.25722 26.4458 5.75926 26.8651C5.26131 27.2779 4.57334 27.4843 3.69536 27.4843H1.84768V29.6563H1.1204V22.7766H3.69536ZM3.67571 26.8455C4.35712 26.8455 4.87801 26.6981 5.23837 26.4032C5.59874 26.1018 5.77892 25.6792 5.77892 25.1354C5.77892 24.5785 5.59874 24.1526 5.23837 23.8577C4.87801 23.5563 4.35712 23.4056 3.67571 23.4056H1.84768V26.8455H3.67571ZM10.0156 29.7055C9.51764 29.7055 9.06882 29.5941 8.66914 29.3713C8.26947 29.142 7.95497 28.8275 7.72565 28.4278C7.49633 28.0281 7.38166 27.576 7.38166 27.0715C7.38166 26.567 7.49633 26.1149 7.72565 25.7152C7.95497 25.3156 8.26947 25.0043 8.66914 24.7816C9.06882 24.5588 9.51764 24.4474 10.0156 24.4474C10.5136 24.4474 10.9624 24.5588 11.362 24.7816C11.7617 25.0043 12.0729 25.3156 12.2957 25.7152C12.525 26.1149 12.6397 26.567 12.6397 27.0715C12.6397 27.576 12.525 28.0281 12.2957 28.4278C12.0729 28.8275 11.7617 29.142 11.362 29.3713C10.9624 29.5941 10.5136 29.7055 10.0156 29.7055ZM10.0156 29.0863C10.3825 29.0863 10.7101 29.0044 10.9984 28.8406C11.2932 28.6702 11.5226 28.4311 11.6864 28.1231C11.8502 27.8152 11.9321 27.4646 11.9321 27.0715C11.9321 26.6784 11.8502 26.3279 11.6864 26.0199C11.5226 25.712 11.2932 25.4761 10.9984 25.3123C10.7101 25.1419 10.3825 25.0568 10.0156 25.0568C9.64868 25.0568 9.3178 25.1419 9.02296 25.3123C8.73467 25.4761 8.50534 25.712 8.33499 26.0199C8.17119 26.3279 8.08929 26.6784 8.08929 27.0715C8.08929 27.4646 8.17119 27.8152 8.33499 28.1231C8.50534 28.4311 8.73467 28.6702 9.02296 28.8406C9.3178 29.0044 9.64868 29.0863 10.0156 29.0863ZM21.5076 24.4867L19.5518 29.6563H18.8934L17.2619 25.4204L15.6304 29.6563H14.9719L13.026 24.4867H13.6943L15.3159 28.8799L16.9769 24.4867H17.5764L19.2275 28.8799L20.8688 24.4867H21.5076ZM26.9156 27.2877H22.5913C22.6306 27.825 22.837 28.2607 23.2104 28.5949C23.5839 28.9225 24.0556 29.0863 24.6257 29.0863C24.9467 29.0863 25.2416 29.0306 25.5102 28.9192C25.7788 28.8013 26.0114 28.6309 26.208 28.4081L26.6011 28.8602C26.3718 29.1354 26.0835 29.3451 25.7362 29.4892C25.3955 29.6334 25.0188 29.7055 24.606 29.7055C24.0753 29.7055 23.6035 29.5941 23.1908 29.3713C22.7845 29.142 22.4668 28.8275 22.2374 28.4278C22.0081 28.0281 21.8935 27.576 21.8935 27.0715C21.8935 26.567 22.0016 26.1149 22.2178 25.7152C22.4406 25.3156 22.7419 25.0043 23.122 24.7816C23.5085 24.5588 23.941 24.4474 24.4193 24.4474C24.8976 24.4474 25.3267 24.5588 25.7068 24.7816C26.0868 25.0043 26.3849 25.3156 26.6011 25.7152C26.8173 26.1084 26.9254 26.5605 26.9254 27.0715L26.9156 27.2877ZM24.4193 25.0469C23.9213 25.0469 23.502 25.2075 23.1613 25.5285C22.8271 25.843 22.6371 26.2558 22.5913 26.7669H26.2571C26.2113 26.2558 26.018 25.843 25.6773 25.5285C25.3431 25.2075 24.9238 25.0469 24.4193 25.0469ZM29.0141 25.499C29.1779 25.1518 29.4203 24.8897 29.7413 24.7128C30.0689 24.5359 30.4719 24.4474 30.9502 24.4474V25.1256L30.7831 25.1157C30.2393 25.1157 29.8134 25.2828 29.5055 25.617C29.1975 25.9511 29.0435 26.4196 29.0435 27.0224V29.6563H28.3458V24.4867H29.0141V25.499ZM36.6669 27.2877H32.3426C32.3819 27.825 32.5883 28.2607 32.9617 28.5949C33.3352 28.9225 33.8069 29.0863 34.377 29.0863C34.698 29.0863 34.9929 29.0306 35.2615 28.9192C35.5301 28.8013 35.7627 28.6309 35.9593 28.4081L36.3524 28.8602C36.1231 29.1354 35.8348 29.3451 35.4876 29.4892C35.1468 29.6334 34.7701 29.7055 34.3573 29.7055C33.8266 29.7055 33.3549 29.5941 32.9421 29.3713C32.5358 29.142 32.2181 28.8275 31.9888 28.4278C31.7594 28.0281 31.6448 27.576 31.6448 27.0715C31.6448 26.567 31.7529 26.1149 31.9691 25.7152C32.1919 25.3156 32.4933 25.0043 32.8733 24.7816C33.2598 24.5588 33.6923 24.4474 34.1706 24.4474C34.6489 24.4474 35.078 24.5588 35.4581 24.7816C35.8381 25.0043 36.1362 25.3156 36.3524 25.7152C36.5686 26.1084 36.6768 26.5605 36.6768 27.0715L36.6669 27.2877ZM34.1706 25.0469C33.6726 25.0469 33.2533 25.2075 32.9126 25.5285C32.5784 25.843 32.3884 26.2558 32.3426 26.7669H36.0084C35.9626 26.2558 35.7693 25.843 35.4286 25.5285C35.0944 25.2075 34.6751 25.0469 34.1706 25.0469ZM42.8145 22.3639V29.6563H42.1462V28.6342C41.9366 28.9814 41.6581 29.2468 41.3108 29.4303C40.9701 29.6137 40.5836 29.7055 40.1511 29.7055C39.6663 29.7055 39.2273 29.5941 38.8342 29.3713C38.441 29.1485 38.1331 28.8373 37.9103 28.4376C37.6876 28.038 37.5762 27.5826 37.5762 27.0715C37.5762 26.5605 37.6876 26.1051 37.9103 25.7054C38.1331 25.3057 38.441 24.9978 38.8342 24.7816C39.2273 24.5588 39.6663 24.4474 40.1511 24.4474C40.5705 24.4474 40.9472 24.5359 41.2814 24.7128C41.6221 24.8831 41.9005 25.1354 42.1168 25.4695V22.3639H42.8145ZM40.2101 29.0863C40.5705 29.0863 40.8948 29.0044 41.1831 28.8406C41.4779 28.6702 41.7072 28.4311 41.871 28.1231C42.0414 27.8152 42.1266 27.4646 42.1266 27.0715C42.1266 26.6784 42.0414 26.3279 41.871 26.0199C41.7072 25.712 41.4779 25.4761 41.1831 25.3123C40.8948 25.1419 40.5705 25.0568 40.2101 25.0568C39.8432 25.0568 39.5123 25.1419 39.2175 25.3123C38.9292 25.4761 38.6999 25.712 38.5295 26.0199C38.3657 26.3279 38.2838 26.6784 38.2838 27.0715C38.2838 27.4646 38.3657 27.8152 38.5295 28.1231C38.6999 28.4311 38.9292 28.6702 39.2175 28.8406C39.5123 29.0044 39.8432 29.0863 40.2101 29.0863ZM49.9935 24.4474C50.4784 24.4474 50.9173 24.5588 51.3105 24.7816C51.7036 24.9978 52.0115 25.3057 52.2343 25.7054C52.4571 26.1051 52.5685 26.5605 52.5685 27.0715C52.5685 27.5826 52.4571 28.038 52.2343 28.4376C52.0115 28.8373 51.7036 29.1485 51.3105 29.3713C50.9173 29.5941 50.4784 29.7055 49.9935 29.7055C49.5611 29.7055 49.1712 29.6137 48.824 29.4303C48.4833 29.2468 48.2081 28.9814 47.9984 28.6342V29.6563H47.3301V22.3639H48.0279V25.4695C48.2441 25.1354 48.5193 24.8831 48.8534 24.7128C49.1942 24.5359 49.5742 24.4474 49.9935 24.4474ZM49.9444 29.0863C50.3047 29.0863 50.6323 29.0044 50.9272 28.8406C51.222 28.6702 51.4513 28.4311 51.6151 28.1231C51.7855 27.8152 51.8707 27.4646 51.8707 27.0715C51.8707 26.6784 51.7855 26.3279 51.6151 26.0199C51.4513 25.712 51.222 25.4761 50.9272 25.3123C50.6323 25.1419 50.3047 25.0568 49.9444 25.0568C49.5775 25.0568 49.2466 25.1419 48.9517 25.3123C48.6634 25.4761 48.4341 25.712 48.2638 26.0199C48.1 26.3279 48.0181 26.6784 48.0181 27.0715C48.0181 27.4646 48.1 27.8152 48.2638 28.1231C48.4341 28.4311 48.6634 28.6702 48.9517 28.8406C49.2466 29.0044 49.5775 29.0863 49.9444 29.0863ZM58.191 24.4867L55.6062 30.2755C55.3965 30.7603 55.1541 31.1043 54.8789 31.3074C54.6037 31.5105 54.2728 31.6121 53.8863 31.6121C53.6373 31.6121 53.4047 31.5728 53.1885 31.4942C52.9723 31.4155 52.7855 31.2976 52.6283 31.1404L52.9526 30.6195C53.2147 30.8815 53.5292 31.0126 53.8961 31.0126C54.132 31.0126 54.3318 30.9471 54.4956 30.816C54.666 30.685 54.8232 30.4622 54.9674 30.1477L55.1934 29.6465L52.8838 24.4867H53.6111L55.5571 28.8799L57.503 24.4867H58.191Z" fill="#2C3647"/>
<path d="M69.4136 0.00012207H79.8723V30.2302L69.4136 37V0.00012207Z" fill="#FFC01E"/>
<path d="M76.1344 29.9148V28.6657C76.0034 28.8501 75.8751 29.0237 75.7168 29.1864C75.5585 29.3491 75.3729 29.4901 75.16 29.6095C74.9471 29.7288 74.7124 29.8264 74.4558 29.9023C74.1992 29.9783 73.929 30.0162 73.6452 30.0162C73.0993 30.0162 72.638 29.9186 72.2614 29.7234C71.8847 29.5281 71.579 29.2759 71.3443 28.9668C71.1096 28.6576 70.9403 28.3051 70.8366 27.9091C70.7329 27.5132 70.681 27.1091 70.681 26.6969V25.1914C70.681 24.8097 64.0255 29.9148 64.0255 29.9148V26.451L70.681 21.7276H73.3831V26.0786C73.3831 26.3064 73.3995 26.5234 73.4323 26.7295C73.465 26.9356 73.5278 27.12 73.6206 27.2827C73.7134 27.4454 73.8362 27.5729 73.9891 27.6651C74.1419 27.7573 74.3439 27.8034 74.595 27.8034C75.0644 27.8034 75.422 27.6298 75.6676 27.2827C75.9133 26.9356 76.0689 26.5288 76.0689 26.0624V21.7276H78.6043V29.9148H76.1344ZM89.8905 25.7044C89.8905 26.2685 89.8031 26.8108 89.6285 27.3315C89.4538 27.8522 89.1999 28.3105 88.867 28.7064C88.534 29.1023 88.1273 29.4196 87.6469 29.6583C87.1665 29.8969 86.6207 30.0162 86.0093 30.0162C85.5071 30.0162 85.0322 29.9159 84.5845 29.7152C84.1369 29.5145 83.7876 29.2406 83.5365 28.8935H83.5037V33.6935H80.818V21.6855H83.3727V22.678H83.4218C83.6729 22.3526 84.0196 22.0678 84.4617 21.8238C84.9039 21.5797 85.4252 21.4577 86.0257 21.4577C86.6152 21.4577 87.1502 21.5716 87.6305 21.7994C88.1109 22.0272 88.5176 22.3363 88.8506 22.7268C89.1836 23.1173 89.4401 23.5702 89.6203 24.0854C89.8004 24.6007 89.8905 25.1403 89.8905 25.7044ZM87.2866 25.7044C87.2866 25.4441 87.2457 25.1892 87.1638 24.9397C87.0819 24.6902 86.9618 24.4705 86.8035 24.2807C86.6452 24.0909 86.446 23.9363 86.2058 23.817C85.9656 23.6976 85.6872 23.638 85.3706 23.638C85.0649 23.638 84.792 23.6976 84.5518 23.817C84.3116 23.9363 84.1069 24.0936 83.9377 24.2888C83.7685 24.4841 83.6374 24.7064 83.5446 24.9559C83.4518 25.2054 83.4055 25.4603 83.4055 25.7207C83.4055 25.981 83.4518 26.2359 83.5446 26.4854C83.6374 26.7349 83.7685 26.9573 83.9377 27.1525C84.1069 27.3478 84.3116 27.5051 84.5518 27.6244C84.792 27.7437 85.0649 27.8034 85.3706 27.8034C85.6872 27.8034 85.9656 27.7437 86.2058 27.6244C86.446 27.5051 86.6452 27.3478 86.8035 27.1525C86.9618 26.9573 87.0819 26.7322 87.1638 26.4773C87.2457 26.2224 87.2866 25.9647 87.2866 25.7044ZM100.65 25.7044C100.65 26.2685 100.562 26.8108 100.388 27.3315C100.213 27.8522 99.9592 28.3105 99.6262 28.7064C99.2932 29.1023 98.8865 29.4196 98.4062 29.6583C97.9258 29.8969 97.3799 30.0162 96.7685 30.0162C96.2663 30.0162 95.7914 29.9159 95.3438 29.7152C94.8962 29.5145 94.5468 29.2406 94.2957 28.8935H94.263V33.6935H91.5772V21.6855H94.1319V22.678H94.1811C94.4322 22.3526 94.7788 22.0678 95.221 21.8238C95.6631 21.5797 96.1844 21.4577 96.7849 21.4577C97.3745 21.4577 97.9094 21.5716 98.3898 21.7994C98.8702 22.0272 99.2768 22.3363 99.6098 22.7268C99.9428 23.1173 100.199 23.5702 100.38 24.0854C100.56 24.6007 100.65 25.1403 100.65 25.7044ZM98.0459 25.7044C98.0459 25.4441 98.0049 25.1892 97.9231 24.9397C97.8412 24.6902 97.7211 24.4705 97.5628 24.2807C97.4045 24.0909 97.2052 23.9363 96.965 23.817C96.7249 23.6976 96.4465 23.638 96.1299 23.638C95.8242 23.638 95.5512 23.6976 95.311 23.817C95.0709 23.9363 94.8662 24.0936 94.6969 24.2888C94.5277 24.4841 94.3967 24.7064 94.3039 24.9559C94.2111 25.2054 94.1647 25.4603 94.1647 25.7207C94.1647 25.981 94.2111 26.2359 94.3039 26.4854C94.3967 26.7349 94.5277 26.9573 94.6969 27.1525C94.8662 27.3478 95.0709 27.5051 95.311 27.6244C95.5512 27.7437 95.8242 27.8034 96.1299 27.8034C96.4465 27.8034 96.7249 27.7437 96.965 27.6244C97.2052 27.5051 97.4045 27.3478 97.5628 27.1525C97.7211 26.9573 97.8412 26.7322 97.9231 26.4773C98.0049 26.2224 98.0459 25.9647 98.0459 25.7044ZM110.983 25.7044C110.983 26.3661 110.863 26.9654 110.623 27.5024C110.383 28.0393 110.055 28.4949 109.64 28.8691C109.225 29.2434 108.745 29.5335 108.199 29.7396C107.653 29.9457 107.069 30.0488 106.447 30.0488C105.836 30.0488 105.254 29.9457 104.703 29.7396C104.152 29.5335 103.671 29.2434 103.262 28.8691C102.852 28.4949 102.528 28.0393 102.287 27.5024C102.047 26.9654 101.927 26.3661 101.927 25.7044C101.927 25.0427 102.047 24.4461 102.287 23.9146C102.528 23.3831 102.852 22.9329 103.262 22.5641C103.671 22.1953 104.152 21.9133 104.703 21.718C105.254 21.5227 105.836 21.4251 106.447 21.4251C107.069 21.4251 107.653 21.5227 108.199 21.718C108.745 21.9133 109.225 22.1953 109.64 22.5641C110.055 22.9329 110.383 23.3831 110.623 23.9146C110.863 24.4461 110.983 25.0427 110.983 25.7044ZM108.396 25.7044C108.396 25.4441 108.352 25.1892 108.265 24.9397C108.177 24.6902 108.052 24.4705 107.888 24.2807C107.724 24.0909 107.522 23.9363 107.282 23.817C107.042 23.6976 106.764 23.638 106.447 23.638C106.13 23.638 105.852 23.6976 105.612 23.817C105.372 23.9363 105.172 24.0909 105.014 24.2807C104.856 24.4705 104.736 24.6902 104.654 24.9397C104.572 25.1892 104.531 25.4441 104.531 25.7044C104.531 25.9647 104.572 26.2197 104.654 26.4691C104.736 26.7186 104.858 26.9437 105.022 27.1444C105.186 27.3451 105.388 27.5051 105.628 27.6244C105.868 27.7437 106.147 27.8034 106.463 27.8034C106.78 27.8034 107.058 27.7437 107.299 27.6244C107.539 27.5051 107.741 27.3451 107.904 27.1444C108.068 26.9437 108.191 26.7186 108.273 26.4691C108.355 26.2197 108.396 25.9647 108.396 25.7044ZM115.601 19.0984C115.601 19.3045 115.56 19.497 115.478 19.676C115.397 19.855 115.287 20.0095 115.151 20.1397C115.014 20.2699 114.851 20.3729 114.66 20.4489C114.469 20.5248 114.269 20.5628 114.062 20.5628C113.625 20.5628 113.259 20.419 112.965 20.1316C112.67 19.8441 112.523 19.4997 112.523 19.0984C112.523 18.9031 112.561 18.716 112.637 18.537C112.714 18.358 112.823 18.2035 112.965 18.0733C113.107 17.9431 113.27 17.8374 113.456 17.756C113.642 17.6746 113.844 17.634 114.062 17.634C114.269 17.634 114.469 17.6719 114.66 17.7479C114.851 17.8238 115.014 17.9268 115.151 18.057C115.287 18.1872 115.397 18.3418 115.478 18.5207C115.56 18.6997 115.601 18.8923 115.601 19.0984ZM112.719 29.7884V21.6855H115.405V29.7884H112.719ZM122.889 29.7884V25.3627C122.889 25.1349 122.87 24.918 122.831 24.7119C122.793 24.5058 122.73 24.3241 122.643 24.1668C122.556 24.0095 122.433 23.8848 122.275 23.7926C122.116 23.7004 121.917 23.6543 121.677 23.6543C121.437 23.6543 121.227 23.7004 121.046 23.7926C120.866 23.8848 120.716 24.0122 120.596 24.1749C120.476 24.3376 120.386 24.5248 120.326 24.7363C120.266 24.9478 120.236 25.1675 120.236 25.3953V29.7884H117.534V21.6855H120.138V22.8082H120.17C120.269 22.6346 120.397 22.4638 120.555 22.2956C120.713 22.1275 120.899 21.9838 121.112 21.8644C121.325 21.7451 121.557 21.6475 121.808 21.5716C122.059 21.4956 122.327 21.4577 122.61 21.4577C123.156 21.4577 123.62 21.5553 124.002 21.7505C124.384 21.9458 124.693 22.198 124.928 22.5071C125.162 22.8163 125.332 23.1715 125.435 23.5729C125.539 23.9743 125.591 24.3756 125.591 24.777V29.7884H122.889ZM130.537 23.6868V26.7783C130.537 27.158 130.61 27.4427 130.758 27.6325C130.905 27.8224 131.17 27.9173 131.552 27.9173C131.683 27.9173 131.822 27.9064 131.969 27.8847C132.117 27.863 132.24 27.8305 132.338 27.7871L132.371 29.7396C132.185 29.8047 131.95 29.8617 131.666 29.9105C131.383 29.9593 131.099 29.9837 130.815 29.9837C130.269 29.9837 129.811 29.9159 129.439 29.7803C129.068 29.6447 128.771 29.4495 128.547 29.1945C128.323 28.9396 128.162 28.6359 128.064 28.2834C127.965 27.9308 127.916 27.5376 127.916 27.1037V23.6868H126.606V21.6855H127.9V19.554H130.537V21.6855H132.453V23.6868H130.537ZM144.129 29.7884V25.3627C144.129 25.1349 144.112 24.9153 144.08 24.7037C144.047 24.4922 143.987 24.3105 143.9 24.1587C143.812 24.0068 143.695 23.8848 143.548 23.7926C143.4 23.7004 143.206 23.6543 142.966 23.6543C142.737 23.6543 142.538 23.7031 142.368 23.8007C142.199 23.8983 142.057 24.0285 141.943 24.1912C141.828 24.3539 141.743 24.541 141.689 24.7526C141.634 24.9641 141.607 25.1837 141.607 25.4115V29.7884H138.921V25.1675C138.921 24.701 138.828 24.3322 138.643 24.061C138.457 23.7898 138.162 23.6543 137.758 23.6543C137.333 23.6543 137.002 23.8224 136.768 24.1587C136.533 24.4949 136.416 24.9071 136.416 25.3953V29.7884H133.714V21.6855H136.317V22.8082C136.448 22.6346 136.571 22.4665 136.719 22.3038C136.866 22.141 137.043 21.9973 137.251 21.8726C137.458 21.7478 137.69 21.6475 137.947 21.5716C138.203 21.4956 138.484 21.4577 138.79 21.4577C139.38 21.4577 139.879 21.577 140.289 21.8156C140.698 22.0543 141.017 22.396 141.247 22.8407C141.52 22.4177 141.869 22.0814 142.295 21.8319C142.721 21.5824 143.239 21.4577 143.85 21.4577C144.407 21.4577 144.874 21.558 145.251 21.7587C145.627 21.9594 145.93 22.2197 146.16 22.5397C146.389 22.8597 146.555 23.2176 146.659 23.6136C146.763 24.0095 146.815 24.3973 146.815 24.777V29.7884H144.129ZM154.462 24.8095C154.462 24.3865 154.329 24.0231 154.061 23.7193C153.794 23.4156 153.392 23.2638 152.857 23.2638C152.595 23.2638 152.355 23.3044 152.137 23.3858C151.919 23.4671 151.727 23.5783 151.564 23.7193C151.4 23.8604 151.269 24.0258 151.171 24.2156C151.072 24.4054 151.018 24.6034 151.007 24.8095H154.462ZM156.935 25.8346V26.16C156.935 26.2685 156.93 26.3715 156.919 26.4691H151.007C151.029 26.6969 151.097 26.903 151.212 27.0874C151.326 27.2719 151.474 27.4318 151.654 27.5674C151.834 27.703 152.036 27.8088 152.26 27.8847C152.484 27.9607 152.716 27.9986 152.956 27.9986C153.381 27.9986 153.742 27.92 154.037 27.7627C154.331 27.6054 154.572 27.402 154.757 27.1525L156.624 28.324C156.242 28.8773 155.737 29.303 155.109 29.6013C154.481 29.8996 153.753 30.0488 152.923 30.0488C152.312 30.0488 151.733 29.9539 151.187 29.764C150.641 29.5742 150.164 29.2976 149.754 28.9342C149.345 28.5708 149.023 28.1234 148.788 27.5918C148.553 27.0603 148.436 26.4529 148.436 25.7695C148.436 25.1078 148.55 24.5085 148.78 23.9715C149.009 23.4346 149.32 22.979 149.713 22.6048C150.106 22.2305 150.57 21.9404 151.105 21.7343C151.64 21.5282 152.219 21.4251 152.841 21.4251C153.442 21.4251 153.993 21.5255 154.495 21.7261C154.997 21.9268 155.429 22.217 155.789 22.5966C156.149 22.9763 156.43 23.4373 156.632 23.9797C156.834 24.522 156.935 25.1403 156.935 25.8346ZM163.961 29.7884V25.3627C163.961 25.1349 163.941 24.918 163.903 24.7119C163.865 24.5058 163.802 24.3241 163.715 24.1668C163.628 24.0095 163.505 23.8848 163.346 23.7926C163.188 23.7004 162.989 23.6543 162.749 23.6543C162.509 23.6543 162.298 23.7004 162.118 23.7926C161.938 23.8848 161.788 24.0122 161.668 24.1749C161.548 24.3376 161.458 24.5248 161.398 24.7363C161.338 24.9478 161.308 25.1675 161.308 25.3953V29.7884H158.606V21.6855H161.209V22.8082H161.242C161.34 22.6346 161.469 22.4638 161.627 22.2956C161.785 22.1275 161.971 21.9838 162.184 21.8644C162.397 21.7451 162.629 21.6475 162.88 21.5716C163.131 21.4956 163.398 21.4577 163.682 21.4577C164.228 21.4577 164.692 21.5553 165.074 21.7505C165.456 21.9458 165.765 22.198 165.999 22.5071C166.234 22.8163 166.403 23.1715 166.507 23.5729C166.611 23.9743 166.663 24.3756 166.663 24.777V29.7884H163.961ZM171.608 23.6868V26.7783C171.608 27.158 171.682 27.4427 171.829 27.6325C171.977 27.8224 172.242 27.9173 172.624 27.9173C172.755 27.9173 172.894 27.9064 173.041 27.8847C173.189 27.863 173.311 27.8305 173.41 27.7871L173.442 29.7396C173.257 29.8047 173.022 29.8617 172.738 29.9105C172.454 29.9593 172.171 29.9837 171.887 29.9837C171.341 29.9837 170.882 29.9159 170.511 29.7803C170.14 29.6447 169.842 29.4495 169.619 29.1945C169.395 28.9396 169.234 28.6359 169.136 28.2834C169.037 27.9308 168.988 27.5376 168.988 27.1037V23.6868H167.678V21.6855H168.972V19.554H171.608V21.6855H173.524V23.6868H171.608ZM177.848 28.3566C177.848 28.8122 177.687 29.1918 177.365 29.4956C177.043 29.7993 176.658 29.9511 176.21 29.9511C175.981 29.9511 175.765 29.9105 175.563 29.8291C175.361 29.7478 175.184 29.6366 175.031 29.4956C174.878 29.3545 174.758 29.1891 174.671 28.9993C174.583 28.8095 174.54 28.6007 174.54 28.3729C174.54 28.1559 174.583 27.9498 174.671 27.7546C174.758 27.5593 174.878 27.3885 175.031 27.242C175.184 27.0956 175.361 26.979 175.563 26.8922C175.765 26.8054 175.981 26.762 176.21 26.762C176.658 26.762 177.043 26.9139 177.365 27.2176C177.687 27.5213 177.848 27.901 177.848 28.3566Z" fill="#2C3647"/>
</svg>
